<svg width="40" height="40" viewBox="0 0 40 40" fill="none" xmlns="http://www.w3.org/2000/svg">
<path fill-rule="evenodd" clip-rule="evenodd" d="M8.50414 4.3335C6.25981 4.3335 4.59914 6.29782 4.67347 8.42816C4.74481 10.4748 4.65214 13.1255 3.98481 15.2871C3.31547 17.4551 2.18348 18.8285 0.334473 19.0049V20.9955C2.18348 21.1719 3.31547 22.5451 3.98481 24.7131C4.65214 26.8749 4.74481 29.5255 4.67347 31.5721C4.59914 33.7021 6.25981 35.6669 8.50447 35.6669H31.5011C33.7455 35.6669 35.4057 33.7025 35.3315 31.5721C35.2601 29.5255 35.3527 26.8749 36.0201 24.7131C36.6897 22.5451 37.8187 21.1719 39.6677 20.9955V19.0049C37.8187 18.8285 36.6897 17.4551 36.0201 15.2871C35.3527 13.1259 35.2601 10.4748 35.3315 8.42816C35.4057 6.29816 33.7455 4.3335 31.5011 4.3335H8.50414ZM27.0011 23.6211C27.0011 26.5545 24.8131 28.3335 21.1821 28.3335H15.0011C14.8244 28.3335 14.6547 28.2632 14.5297 28.1382C14.4047 28.0132 14.3345 27.8436 14.3345 27.6669V12.3335C14.3345 12.1567 14.4047 11.9871 14.5297 11.8621C14.6547 11.7371 14.8244 11.6668 15.0011 11.6668H21.1467C24.1745 11.6668 26.1615 13.3069 26.1615 15.8249C26.1615 17.5921 24.8247 19.1745 23.1217 19.4515V19.5439C25.4401 19.7981 27.0011 21.4035 27.0011 23.6211ZM20.5081 13.7801H16.9837V18.7581H19.9521C22.2467 18.7581 23.5121 17.8341 23.5121 16.1825C23.5121 14.6349 22.4241 13.7801 20.5081 13.7801ZM16.9837 20.7335V26.2195H20.6377C23.0267 26.2195 24.2925 25.2609 24.2925 23.4591C24.2925 21.6571 22.9915 20.7331 20.4841 20.7331L16.9837 20.7335Z" fill="#161C2D"/>
</svg>
