<svg width="40" height="40" viewBox="0 0 40 40" fill="none" xmlns="http://www.w3.org/2000/svg">
<path d="M28.0338 15.2714L27.7969 15.142C27.9216 15.4432 27.9622 15.7001 27.9578 15.9298C28.0044 15.7408 28.0304 15.5472 28.0353 15.3526C28.039 15.5878 28.0103 15.8224 27.95 16.0498L27.9578 15.9298C27.8904 16.2128 27.777 16.4825 27.6222 16.7289L27.6957 16.6507C26.7957 18.1567 24.3403 18.4857 23.1294 16.9304C21.1857 14.4335 23.1694 11.7417 23.4472 9.09761C23.7944 5.78386 21.7166 2.56667 19.14 0.641357C20.5591 2.93698 18.6894 5.97448 17.1935 7.67198C15.7428 9.31854 13.9791 10.6929 12.3778 12.1879C10.6582 13.7951 9.00379 15.4864 7.59066 17.3717C4.76285 21.1448 3.03129 25.8904 4.30379 30.5982C5.57504 35.3032 9.65004 38.2979 14.2519 39.3567C11.9303 38.3529 9.75785 35.8026 9.75285 33.1932C9.74691 30.3476 11.5497 27.9323 13.7925 26.3451C13.5228 27.3635 13.3757 28.2951 14.0435 29.206C14.6647 30.0532 15.7522 30.4645 16.7788 30.241C19.1785 29.7164 19.2882 27.0785 17.866 25.5417C16.4594 24.0204 15.0988 22.3007 15.6338 20.0939C15.9019 18.9876 16.5813 17.952 17.4422 17.2107C16.7803 18.9492 18.66 20.6635 19.8982 21.5167C22.0469 22.9982 24.4032 24.1182 26.3788 25.8545C28.4563 27.6795 29.991 30.147 29.681 33.0095C29.3447 36.1117 26.8797 38.2695 24.115 39.3585C29.9575 38.0685 35.9957 33.5339 36.1185 27.0535C36.2213 21.7229 32.5644 17.6201 28.0338 15.2714Z" fill="#161C2D"/>
</svg>
