<svg width="40" height="40" viewBox="0 0 40 40" fill="none" xmlns="http://www.w3.org/2000/svg">
<path d="M8.57898 32.9263L6 4H34.3386L31.7569 32.9218L20.152 36.1391L8.57898 32.9263Z" fill="#161C2D"/>
<path d="M29.5467 31.0802L31.7529 6.36523H20.1693V33.68L29.5467 31.0802Z" fill="#161C2D"/>
<path d="M11.9122 17.0935L12.2302 20.6412H20.1693V17.0935H11.9122Z" fill="#F9FAFD"/>
<path d="M11.5958 13.4606H20.1693V9.91284H20.157H11.2733L11.5958 13.4606Z" fill="#F9FAFD"/>
<path d="M20.153 30.0029L20.1693 29.9983V26.3072L20.1538 26.3114L16.2027 25.2445L15.9501 22.415H14.0302H12.3888L12.8858 27.9854L20.153 30.0029Z" fill="#F9FAFD"/>
<path d="M29.044 9.91284H20.157V13.4606H25.156L24.8332 17.0935H20.157V20.6411H24.5256L24.1138 25.2422L20.157 26.3102V30.0011L27.43 27.9854L27.4833 27.386L28.317 18.0461L28.4035 17.0935L29.044 9.91284Z" fill="#F9FAFD"/>
</svg>
