<svg width="64" height="64" viewBox="0 0 64 64" fill="none" xmlns="http://www.w3.org/2000/svg">
<g clip-path="url(#clip0_862_4447)">
<path d="M24.0016 56C28.4167 56 32 52.416 32 48V40H24.0016C19.5865 40 16.0032 43.584 16.0032 48C16.0032 52.416 19.5865 56 24.0016 56Z" fill="#0ACF83"/>
<path d="M16.0032 32C16.0032 27.584 19.5865 24 24.0016 24H32V40H24.0016C19.5865 40 16.0032 36.416 16.0032 32Z" fill="#A259FF"/>
<path d="M16.0032 16C16.0032 11.584 19.5865 8 24.0016 8H32V24H24.0016C19.5865 24 16.0032 20.416 16.0032 16Z" fill="#F24E1E"/>
<path d="M32 8H39.9984C44.4135 8 47.9968 11.584 47.9968 16C47.9968 20.416 44.4135 24 39.9984 24H32V8Z" fill="#FF7262"/>
<path d="M47.9968 32C47.9968 36.416 44.4135 40 39.9984 40C35.5833 40 32 36.416 32 32C32 27.584 35.5833 24 39.9984 24C44.4135 24 47.9968 27.584 47.9968 32Z" fill="#1ABCFE"/>
</g>
<defs>
<clipPath id="clip0_862_4447">
<rect width="32" height="48" fill="white" transform="translate(16 8)"/>
</clipPath>
</defs>
</svg>
