<svg width="64" height="64" viewBox="0 0 64 64" fill="none" xmlns="http://www.w3.org/2000/svg">
<path d="M38.2396 8L17.0969 8.06562C15.0489 8.06562 13 9.64156 13 11.6769V52.3222C13 54.3575 15.048 55.9991 17.0969 55.9991H46.4191C48.4671 55.9991 50 54.3444 50 52.3222V30.8113V19.6222L38.2396 8Z" fill="#2196F3"/>
<path d="M42.2309 30.6934H21.3391V33.2415H42.2309V30.6934Z" fill="white"/>
<path d="M42.2309 35.3555H21.3391V37.9036H42.2309V35.3555Z" fill="white"/>
<path d="M42.2309 39.834H21.3391V42.3821H42.2309V39.834Z" fill="white"/>
<path d="M32.7297 44.3779H21.3391V46.9261H32.7297V44.3779Z" fill="white"/>
<path d="M50 20.0171H38.6094L50 30.8115V20.0171Z" fill="#1975D1"/>
<path d="M38.2395 19.6221L38.6093 20.0168H49.9999V19.6221H38.2395Z" fill="#0054B9"/>
<path d="M49.9999 19.6222L38.2395 8V19.6222H49.9999Z" fill="#BBDEFB"/>
</svg>
