<svg width="64" height="64" viewBox="0 0 64 64" fill="none" xmlns="http://www.w3.org/2000/svg">
<path d="M35.1501 31.9999L39.8283 37.413L46.1189 41.487L47.2158 32.0378L46.1189 22.7881L39.7064 26.3683L35.1501 31.9999Z" fill="#00832D"/>
<path d="M8 40.6138V48.667C8 50.5093 9.47188 52.0003 11.2906 52.0003H19.2406L20.8906 45.9129L19.2406 40.6138L13.7844 38.9424L8 40.6138Z" fill="#0066DA"/>
<path d="M19.2406 12L8 23.3865L13.7844 25.0579L19.2406 23.3865L20.8625 18.1633L19.2406 12Z" fill="#E94235"/>
<path d="M19.2406 23.3862H8V40.6132H19.2406V23.3862Z" fill="#2684FC"/>
<path d="M53.3095 16.8244L46.1188 22.7883V41.4872L53.3376 47.4796C54.4157 48.3343 56.0001 47.5556 56.0001 46.1596V18.1064C56.0001 16.7009 54.3876 15.9317 53.3095 16.8244ZM35.1501 32.0001V40.6135H19.2407V52.0001H42.8282C44.647 52.0001 46.1188 50.5091 46.1188 48.6667V41.4872L35.1501 32.0001Z" fill="#00AC47"/>
<path d="M42.8282 12H19.2407V23.3865H35.1501V32L46.1188 22.7977V15.3333C46.1188 13.491 44.647 12 42.8282 12Z" fill="#FFBA00"/>
</svg>
