<svg width="64" height="64" viewBox="0 0 64 64" fill="none" xmlns="http://www.w3.org/2000/svg">
<path d="M40.8265 39.1279H23.2544L15.7297 52.2463C16.635 52.7057 17.6629 53.0002 18.3278 53.0002C25.2402 53.0002 39.3475 52.8981 46.3504 52.8981C47.0705 52.8981 47.7446 52.6531 48.3491 52.2692L40.8265 39.1279Z" fill="#4185F3"/>
<path d="M15.7296 52.2468L23.2542 39.1284H8.00648C7.99881 40.0401 8.32357 40.8741 8.83244 41.8256C10.2501 44.4727 12.6487 48.7043 14.0577 50.9145C14.405 51.4591 15.7838 52.2743 15.7296 52.2468Z" fill="#1767D1"/>
<path d="M40.8264 39.128L48.3516 52.2672C49.3269 51.6486 50.1216 50.6685 50.6376 49.7661C51.8027 47.7309 53.7727 44.3421 55.1316 42.0477C55.7632 40.9809 56.0087 40.0228 55.9933 39.127L40.8264 39.128Z" fill="#E94235"/>
<path d="M23.2558 39.1292L32.0329 23.8997L24.1886 10.8467C23.3402 11.4036 22.6145 12.1595 22.2851 12.7353C18.8611 18.7289 11.9635 31.0127 8.49498 37.0839C8.13957 37.7051 7.9694 38.4147 8.00452 39.1292H23.2558Z" fill="#30A753"/>
<path d="M40.8259 39.1286L32.033 23.899L39.6619 10.8608C40.5104 11.4182 41.4417 12.1589 41.7711 12.7352C45.1951 18.7283 52.0927 31.012 55.5627 37.0832C55.9207 37.7075 56.0286 38.4139 55.9939 39.1286H40.8259Z" fill="#F9BC00"/>
<path d="M24.1877 10.8483L32.033 23.8992L39.662 10.8611C38.8744 10.4017 37.759 10.1296 36.6789 10.0954C33.6737 9.99535 28.8018 9.95502 26.1798 10.0688C25.5333 10.0969 24.1959 10.8427 24.1877 10.8483Z" fill="#0F8038"/>
</svg>
