<svg width="40" height="40" viewBox="0 0 40 40" fill="none" xmlns="http://www.w3.org/2000/svg">
<g clip-path="url(#clip0_264_248)">
<path d="M39.9063 9.12631C39.9212 9.17932 39.9287 9.23396 39.9289 9.28887V17.8225C39.9289 17.932 39.899 18.0396 39.8422 18.1344C39.7855 18.2292 39.7038 18.3078 39.6056 18.3623L32.2003 22.486V30.6595C32.2003 30.882 32.078 31.0873 31.8786 31.1993L16.4206 39.8061C16.3852 39.8255 16.3466 39.838 16.308 39.8512C16.2935 39.8559 16.2799 39.8644 16.2646 39.8683C16.1565 39.8958 16.0429 39.8958 15.9349 39.8683C15.9172 39.8636 15.9011 39.8543 15.8842 39.8481C15.8488 39.8356 15.8118 39.8247 15.7781 39.8061L0.323265 31.1993C0.225085 31.1448 0.143508 31.0661 0.0867545 30.9714C0.0300013 30.8766 7.77922e-05 30.7691 0 30.6595L0 5.0586C0 5.0026 0.00804142 4.94815 0.022516 4.89526C0.0273408 4.87738 0.0385988 4.86104 0.0450319 4.84315C0.0570941 4.81049 0.0683521 4.77704 0.0860432 4.74671C0.0981053 4.72649 0.115796 4.71016 0.130271 4.69149C0.148766 4.6666 0.165653 4.64093 0.187365 4.61916C0.20586 4.60127 0.229985 4.58805 0.250892 4.57249C0.274212 4.55383 0.29512 4.5336 0.321657 4.51883L8.05026 0.215445C8.14811 0.160986 8.25903 0.132324 8.37192 0.132324C8.48481 0.132324 8.59573 0.160986 8.69358 0.215445L16.4214 4.51883H16.423C16.4487 4.53438 16.4704 4.55383 16.4938 4.57171C16.5147 4.58727 16.538 4.60127 16.5565 4.61838C16.579 4.64094 16.5951 4.6666 16.6144 4.69149C16.628 4.71016 16.6465 4.72649 16.6578 4.74671C16.6763 4.77782 16.6867 4.81049 16.6996 4.84315C16.706 4.86104 16.7173 4.87738 16.7221 4.89604C16.7369 4.94904 16.7445 5.00369 16.7446 5.0586V21.0487L23.1842 17.4624V9.28809C23.1842 9.23364 23.1923 9.17842 23.2067 9.12631C23.2124 9.10765 23.2228 9.09131 23.2292 9.07342C23.2421 9.04076 23.2534 9.00731 23.2711 8.97698C23.2831 8.95676 23.3008 8.94043 23.3145 8.92176C23.3338 8.89687 23.3499 8.87121 23.3724 8.84943C23.3909 8.83154 23.4142 8.81832 23.4351 8.80276C23.4592 8.7841 23.4801 8.76387 23.5059 8.7491L31.2353 4.44572C31.3331 4.39118 31.444 4.36248 31.5569 4.36248C31.6699 4.36248 31.7808 4.39118 31.8786 4.44572L39.6064 8.7491C39.6337 8.76465 39.6547 8.7841 39.6788 8.80198C39.6989 8.81754 39.7222 8.83154 39.7407 8.84865C39.7632 8.87121 39.7793 8.89687 39.7986 8.92176C39.8131 8.94043 39.8308 8.95676 39.842 8.97698C39.8605 9.00731 39.871 9.04076 39.8838 9.07342C39.8911 9.09131 39.9015 9.10765 39.9063 9.12631ZM38.6406 17.4624V10.3661L35.9363 11.8718L32.2003 13.9524V21.0487L38.6414 17.4624H38.6406ZM30.9128 30.2994V23.1984L27.2379 25.2284L16.7438 31.0212V38.1891L30.9128 30.2994ZM1.28824 6.1358V30.2994L15.4556 38.1883V31.022L8.05429 26.9706L8.05187 26.969L8.04866 26.9675C8.02373 26.9535 8.00282 26.9333 7.9795 26.9162C7.9594 26.9006 7.93608 26.8882 7.91839 26.871L7.91678 26.8687C7.89587 26.8493 7.8814 26.8252 7.8637 26.8034C7.84762 26.7824 7.82832 26.7645 7.81546 26.7427L7.81465 26.7404C7.80018 26.717 7.79133 26.6891 7.78088 26.6626C7.77042 26.6393 7.75675 26.6175 7.75032 26.5926C7.74228 26.5631 7.74067 26.5312 7.73745 26.5008C7.73424 26.4775 7.7278 26.4542 7.7278 26.4308V9.72208L3.99256 7.64078L1.28824 6.1358ZM8.37273 1.47387L1.93396 5.0586L8.37112 8.64332L14.8091 5.05782L8.37112 1.47387H8.37273ZM11.7212 23.8455L15.4564 21.7658V6.1358L12.7521 7.64156L9.01604 9.72208V25.3521L11.7212 23.8455ZM31.5569 5.70414L25.119 9.28887L31.5569 12.8736L37.9941 9.28809L31.5569 5.70414ZM30.9128 13.9524L27.1768 11.8718L24.4725 10.3661V17.4624L28.2077 19.5422L30.9128 21.0487V13.9524ZM16.0989 29.944L25.542 24.7299L30.2623 22.1243L23.8291 18.542L16.4222 22.6664L9.67142 26.4254L16.0989 29.944Z" fill="#161C2D"/>
</g>
<defs>
<clipPath id="clip0_264_248">
<rect width="40" height="40" fill="white"/>
</clipPath>
</defs>
</svg>
