<svg width="41" height="40" viewBox="0 0 41 40" fill="none" xmlns="http://www.w3.org/2000/svg">
<g clip-path="url(#clip0_264_252)">
<path fill-rule="evenodd" clip-rule="evenodd" d="M37.6079 31.1574C35.4324 31.0968 33.7446 31.3198 32.33 31.9149C31.9227 32.0785 31.2691 32.0785 31.2154 32.5911C31.4331 32.8062 31.4593 33.1583 31.6502 33.4564C31.9764 33.9975 32.5483 34.7265 33.0648 35.1046L34.8055 36.3486C35.8665 36.997 37.0634 37.3757 38.0969 38.0247C38.6956 38.4034 39.2938 38.89 39.8925 39.296C40.1974 39.5123 40.3822 39.8644 40.7632 39.9989V39.9171C40.573 39.6747 40.5181 39.3233 40.3285 39.0518L39.5115 38.2683C38.7231 37.2139 37.7432 36.2941 36.6823 35.5379C35.8116 34.9428 33.908 34.132 33.5544 33.1322L33.5007 33.0716C34.0983 33.011 34.8055 32.8008 35.3775 32.6384C36.303 32.396 37.1457 32.4493 38.0969 32.2063L39.4035 31.8276V31.5852C38.9139 31.0987 38.5603 30.4497 38.0438 29.9904C36.6567 28.8009 35.1324 27.6381 33.5544 26.6649C32.7111 26.1244 31.6227 25.7723 30.7252 25.3136C30.3978 25.1512 29.8545 25.07 29.6643 24.7998C29.1734 24.2059 28.9021 23.4212 28.5485 22.7177L26.3181 18.0137C25.8284 16.9593 25.5285 15.905 24.9309 14.9318C22.1286 10.3357 19.0811 7.55131 14.4021 4.82028C13.396 4.2525 12.1991 4.0083 10.9266 3.71138L8.88641 3.60231C8.45045 3.41325 8.01571 2.89941 7.63463 2.65581C6.08408 1.68265 2.08484 -0.426065 0.941596 2.35284C0.206868 4.1101 2.02997 5.8401 2.64884 6.73267C3.11224 7.35437 3.70978 8.05728 4.03721 8.76019C4.22013 9.2195 4.2811 9.70669 4.47195 10.1933C4.90669 11.3828 5.31521 12.708 5.88653 13.8169C6.19139 14.3846 6.51151 14.9803 6.89259 15.4935C7.11026 15.7965 7.49134 15.9262 7.57243 16.4128C7.19135 16.9539 7.16514 17.764 6.94746 18.4409C5.96762 21.4961 6.3487 25.2809 7.73585 27.5302C8.1718 28.2058 9.19921 29.6934 10.5931 29.1251C11.8174 28.6385 11.5442 27.0975 11.8979 25.7457C11.9802 25.4215 11.9253 25.2051 12.0881 24.9882V25.0488L13.2039 27.2927C14.0472 28.6173 15.5166 29.9964 16.7404 30.9163C17.3928 31.4028 17.9098 32.2415 18.7257 32.5384V32.4566H18.672C18.5086 32.2142 18.2635 32.1051 18.0458 31.9161C17.5562 31.4295 17.0123 30.8345 16.6312 30.2939C15.4892 28.7803 14.4831 27.1036 13.585 25.3736C13.1491 24.5356 12.768 23.6163 12.4155 22.7783C12.2509 22.4535 12.2509 21.9663 11.9796 21.8051C11.5711 22.399 10.9735 22.914 10.6729 23.6436C10.1559 24.8058 10.1022 26.2389 9.91198 27.7259C9.80223 27.7532 9.85101 27.7259 9.80223 27.7865C8.93276 27.5708 8.63277 26.6776 8.30656 25.9214C7.49074 24.0017 7.35415 20.9198 8.06144 18.7027C8.25168 18.1349 9.06872 16.3504 8.74252 15.8098C8.57789 15.296 8.03522 14.9991 7.73523 14.5931C7.38159 14.0792 7.00173 13.4309 6.75661 12.8631C6.1042 11.3482 5.77799 9.67275 5.07009 8.15847C4.74267 7.45557 4.17196 6.72539 3.70917 6.07702C3.19212 5.34685 2.62202 4.833 2.2135 3.96831C2.07753 3.66533 1.88729 3.18421 2.10496 2.85941C2.15862 2.64309 2.26837 2.55644 2.48483 2.50796C2.83847 2.20498 3.84575 2.58916 4.19939 2.75034C5.20545 3.15633 6.04871 3.53445 6.89197 4.10162C7.27306 4.37187 7.68158 4.88572 8.1712 5.02146H8.74312C9.61382 5.21051 10.5924 5.08205 11.4077 5.32443C12.8497 5.78496 14.1551 6.45999 15.3258 7.19077C18.8891 9.43461 21.828 12.625 23.8133 16.4376C24.1395 17.0593 24.2755 17.6271 24.5754 18.2761C25.1474 19.6013 25.8547 20.9526 26.4248 22.2511C26.9967 23.5218 27.5406 24.8204 28.3564 25.8747C28.7649 26.4425 30.3966 26.7394 31.1307 27.0369C31.6752 27.2793 32.5178 27.4975 33.0087 27.7944C33.933 28.3622 34.858 29.0111 35.7281 29.6328C36.1628 29.9564 37.5237 30.6327 37.6048 31.172L37.6079 31.1574ZM9.86504 7.66341C9.48917 7.66011 9.11448 7.70553 8.75044 7.79854V7.85913H8.8041C9.02177 8.29178 9.40286 8.58931 9.6748 8.96803L10.301 10.266L10.3546 10.2054C10.7357 9.93513 10.9266 9.50248 10.9266 8.85411C10.7632 8.66505 10.7363 8.47539 10.6004 8.28633C10.437 8.01607 10.0833 7.88034 9.86504 7.66462V7.66341Z" fill="#161C2D"/>
</g>
<defs>
<clipPath id="clip0_264_252">
<rect width="40" height="40" fill="white" transform="translate(0.763184 -0.000488281)"/>
</clipPath>
</defs>
</svg>
