<svg width="40" height="40" viewBox="0 0 40 40" fill="none" xmlns="http://www.w3.org/2000/svg">
<mask id="mask0_264_222" style="mask-type:luminance" maskUnits="userSpaceOnUse" x="2" y="11" width="36" height="18">
<path d="M2.71997 19.9998C2.71997 24.958 10.4567 28.9775 20 28.9775C29.5433 28.9775 37.28 24.958 37.28 19.9998C37.28 15.0416 29.5433 11.022 20 11.022C10.4567 11.022 2.71997 15.0416 2.71997 19.9998Z" fill="white"/>
</mask>
<g mask="url(#mask0_264_222)">
<path d="M2.71997 19.9998C2.71997 24.958 10.4567 28.9775 20 28.9775C29.5433 28.9775 37.28 24.958 37.28 19.9998C37.28 15.0416 29.5433 11.022 20 11.022C10.4567 11.022 2.71997 15.0416 2.71997 19.9998Z" fill="#161C2D"/>
</g>
<mask id="mask1_264_222" style="mask-type:luminance" maskUnits="userSpaceOnUse" x="2" y="10" width="36" height="20">
<path d="M2 10H38V30H2V10Z" fill="white"/>
</mask>
<g mask="url(#mask1_264_222)">
<path d="M19.9998 28.3108C29.1704 28.3108 36.6048 24.5898 36.6048 19.9997C36.6048 15.4096 29.1704 11.6886 19.9998 11.6886C10.8291 11.6886 3.39478 15.4096 3.39478 19.9997C3.39478 24.5898 10.8291 28.3108 19.9998 28.3108Z" fill="#161C2D"/>
</g>
<mask id="mask2_264_222" style="mask-type:luminance" maskUnits="userSpaceOnUse" x="2" y="10" width="36" height="20">
<path d="M2 10H38V30H2V10Z" fill="white"/>
</mask>
<g mask="url(#mask2_264_222)">
<path d="M12.1086 21.0299C12.8626 21.0299 13.4256 20.8926 13.7817 20.6219C14.1341 20.354 14.3774 19.8897 14.505 19.2421C14.6239 18.6368 14.5786 18.2141 14.3704 17.986C14.1574 17.7531 13.6971 17.6349 13.0021 17.6349H11.7971L11.1289 21.03H12.1085L12.1086 21.0299ZM8.16705 25.212C8.11112 25.212 8.05799 25.1873 8.02243 25.1446C8.00484 25.1236 7.99219 25.0989 7.98539 25.0724C7.97858 25.046 7.97778 25.0183 7.98305 24.9915L9.75355 15.9946C9.76186 15.9524 9.78477 15.9144 9.81836 15.8871C9.85194 15.8598 9.8941 15.8448 9.93762 15.8448H13.7535C14.9527 15.8448 15.8454 16.1658 16.4064 16.8008C16.9705 17.4385 17.1447 18.3299 16.9241 19.4502C16.8344 19.9066 16.68 20.3304 16.4654 20.7101C16.2504 21.09 15.9664 21.4415 15.621 21.7551C15.2075 22.1373 14.7395 22.4145 14.2312 22.5776C13.7311 22.7385 13.0887 22.8202 12.322 22.8202H10.7769L10.3356 25.0623C10.3273 25.1045 10.3044 25.1425 10.2709 25.1698C10.2373 25.1972 10.1951 25.2121 10.1516 25.2122H8.16705V25.212Z" fill="#F9FAFD"/>
<path d="M11.9514 17.8207H13.0019C13.8407 17.8207 14.1321 18.0025 14.2311 18.1109C14.3954 18.2907 14.4264 18.67 14.3208 19.2076C14.2022 19.8094 13.9823 20.2362 13.6672 20.4758C13.3446 20.7211 12.8201 20.8454 12.1084 20.8454H11.3562L11.9514 17.8207ZM13.7533 15.6602H9.93743C9.8504 15.6602 9.76609 15.6902 9.69894 15.7448C9.63179 15.7995 9.58598 15.8756 9.56937 15.9599L7.79887 24.957C7.78833 25.0106 7.78992 25.0658 7.80354 25.1188C7.81715 25.1717 7.84246 25.221 7.87763 25.2632C7.91281 25.3053 7.95699 25.3392 8.007 25.3625C8.05702 25.3859 8.11163 25.3979 8.16693 25.3979H10.1513C10.2384 25.398 10.3227 25.3681 10.3898 25.3134C10.457 25.2587 10.5028 25.1826 10.5194 25.0983L10.9312 23.006H12.3218C13.1082 23.006 13.7702 22.9213 14.2893 22.7543C14.8231 22.583 15.3143 22.2926 15.7489 21.8911C16.1084 21.5644 16.4052 21.1978 16.6289 20.8012C16.8527 20.4046 17.0146 19.962 17.1082 19.4862C17.3404 18.307 17.1517 17.3626 16.5476 16.6797C15.9493 16.0033 15.0092 15.6603 13.7534 15.6603M10.9014 21.2159H12.1084C12.9084 21.2159 13.5044 21.0671 13.8959 20.7693C14.2874 20.4715 14.5517 19.9746 14.6889 19.2781C14.8202 18.6095 14.7604 18.1376 14.5096 17.8627C14.2587 17.5878 13.7558 17.4504 13.0021 17.4504H11.6424L10.9014 21.2158M13.7535 16.0306C14.9014 16.0306 15.7389 16.3281 16.2652 16.9232C16.7916 17.5183 16.9501 18.349 16.7401 19.4155C16.6536 19.8548 16.5074 20.2565 16.3016 20.6204C16.0958 20.9844 15.8265 21.3175 15.494 21.6194C15.0977 21.9857 14.6576 22.2466 14.1732 22.4021C13.6888 22.558 13.0719 22.6356 12.3219 22.6356H10.6222L10.1516 25.0276H8.16718L9.93743 16.0306H13.7534" fill="#161C2D"/>
<path d="M21.4739 22.8207C21.4179 22.8207 21.3648 22.796 21.3293 22.7533C21.2937 22.7106 21.2791 22.6546 21.2899 22.6002L22.073 18.6194C22.1475 18.2408 22.1291 17.9691 22.0213 17.8543C21.9553 17.7841 21.7571 17.6664 21.1709 17.6664H19.752L18.7673 22.6708C18.759 22.713 18.7361 22.751 18.7025 22.7784C18.6689 22.8057 18.6268 22.8207 18.5833 22.8207H16.6145C16.5869 22.8207 16.5595 22.8146 16.5345 22.803C16.5095 22.7913 16.4874 22.7744 16.4698 22.7533C16.4522 22.7322 16.4396 22.7076 16.4328 22.6811C16.426 22.6546 16.4252 22.627 16.4304 22.6002L18.2009 13.6033C18.2093 13.5611 18.2322 13.5231 18.2657 13.4957C18.2993 13.4684 18.3415 13.4535 18.385 13.4535H20.3538C20.3814 13.4535 20.4087 13.4595 20.4337 13.4711C20.4587 13.4828 20.4808 13.4998 20.4984 13.5208C20.516 13.5419 20.5287 13.5666 20.5355 13.593C20.5423 13.6195 20.5431 13.6471 20.5378 13.674L20.1106 15.8454H21.6369C22.7998 15.8454 23.5882 16.0479 24.0476 16.4644C24.5163 16.8894 24.6618 17.5688 24.4818 18.4842L23.658 22.6709C23.6497 22.7131 23.6268 22.7512 23.5932 22.7785C23.5596 22.8058 23.5175 22.8208 23.4739 22.8208H21.4739L21.4739 22.8207Z" fill="#F9FAFD"/>
<path d="M20.3535 13.268H18.3848C18.2977 13.268 18.2134 13.2979 18.1462 13.3526C18.0791 13.4073 18.0332 13.4833 18.0166 13.5677L16.2461 22.5646C16.2356 22.6182 16.2372 22.6735 16.2508 22.7265C16.2644 22.7794 16.2897 22.8287 16.3249 22.8709C16.3601 22.913 16.4043 22.9469 16.4543 22.9702C16.5043 22.9935 16.559 23.0056 16.6143 23.0056H18.583C18.6701 23.0056 18.7544 22.9757 18.8215 22.921C18.8887 22.8664 18.9345 22.7903 18.9511 22.7059L19.9063 17.8513H21.1707C21.7559 17.8513 21.8787 17.9748 21.8836 17.9801C21.9191 18.0177 21.9658 18.1924 21.8888 18.5838L21.1056 22.5646C21.0951 22.6182 21.0967 22.6735 21.1103 22.7265C21.1239 22.7794 21.1492 22.8287 21.1844 22.8709C21.2196 22.913 21.2638 22.9469 21.3138 22.9702C21.3638 22.9935 21.4185 23.0056 21.4738 23.0056H23.4738C23.5608 23.0056 23.6451 22.9757 23.7123 22.921C23.7795 22.8664 23.8253 22.7903 23.8419 22.7059L24.6656 18.5192C24.8589 17.5365 24.6936 16.7992 24.1744 16.3278C23.6789 15.8785 22.8489 15.6599 21.6369 15.6599H20.3379L20.7218 13.709C20.7324 13.6554 20.7308 13.6001 20.7172 13.5472C20.7036 13.4942 20.6783 13.4449 20.6431 13.4027C20.6079 13.3606 20.5637 13.3266 20.5137 13.3033C20.4636 13.28 20.409 13.268 20.3537 13.268M20.3537 13.6383L19.8831 16.0303H21.637C22.7405 16.0303 23.5017 16.2206 23.9207 16.6006C24.3397 16.9806 24.4651 17.5969 24.2977 18.4486L23.4739 22.6352H21.4739L22.2571 18.6545C22.3462 18.2017 22.3134 17.8928 22.1587 17.7281C22.0039 17.5634 21.6746 17.4809 21.1709 17.4809H19.5973L18.5831 22.6352H16.6144L18.3849 13.6383H20.3536" fill="#161C2D"/>
<path d="M27.5968 21.0299C28.3508 21.0299 28.9138 20.8926 29.2699 20.6219C29.6223 20.354 29.8656 19.8898 29.9933 19.2421C30.1122 18.6368 30.0669 18.2141 29.8586 17.986C29.6456 17.7531 29.1853 17.6349 28.4903 17.6349H27.2853L26.6171 21.03H27.5967L27.5968 21.0299ZM23.6554 25.212C23.5994 25.212 23.5463 25.1873 23.5108 25.1446C23.4932 25.1236 23.4805 25.0989 23.4737 25.0724C23.4669 25.046 23.4661 25.0184 23.4713 24.9915L25.2418 15.9946C25.2501 15.9524 25.2731 15.9144 25.3066 15.8871C25.3402 15.8597 25.3824 15.8448 25.4259 15.8448H29.2418C30.4411 15.8448 31.3336 16.1658 31.8948 16.8008C32.4588 17.4385 32.6329 18.3298 32.4124 19.4502C32.3226 19.9066 32.1683 20.3304 31.9536 20.7101C31.7386 21.09 31.4546 21.4415 31.1092 21.7551C30.6957 22.1373 30.2277 22.4145 29.7194 22.5776C29.2193 22.7385 28.5769 22.8202 27.8102 22.8202H26.2649L25.8238 25.0623C25.8155 25.1045 25.7926 25.1425 25.759 25.1699C25.7254 25.1972 25.6832 25.2122 25.6397 25.2122H23.6553L23.6554 25.212Z" fill="#F9FAFD"/>
<path d="M27.4403 17.8207H28.4908C29.3295 17.8207 29.621 18.0025 29.72 18.1109C29.8843 18.2907 29.9153 18.67 29.8096 19.2075C29.691 19.8094 29.4711 20.2362 29.156 20.4758C28.8334 20.7211 28.3089 20.8454 27.5973 20.8454H26.8452L27.4403 17.8207ZM29.2421 15.6602H25.4263C25.3392 15.6602 25.2549 15.6902 25.1878 15.7448C25.1206 15.7995 25.0748 15.8756 25.0582 15.9599L23.2878 24.957C23.2772 25.0106 23.2788 25.0658 23.2924 25.1188C23.306 25.1717 23.3313 25.221 23.3665 25.2632C23.4017 25.3053 23.4459 25.3392 23.4959 25.3625C23.5459 25.3859 23.6005 25.3979 23.6558 25.3979H25.6402C25.7272 25.398 25.8116 25.3681 25.8787 25.3134C25.9459 25.2587 25.9917 25.1826 26.0083 25.0983L26.42 23.006H27.8106C28.597 23.006 29.259 22.9213 29.7781 22.7543C30.3119 22.583 30.8031 22.2926 31.2379 21.891C31.5974 21.5644 31.8934 21.1978 32.1178 20.8012C32.3421 20.4046 32.5034 19.962 32.597 19.4862C32.8292 18.3069 32.6406 17.3626 32.0364 16.6796C31.4381 16.0033 30.4981 15.6603 29.2423 15.6603M26.3903 21.2159H27.5973C28.3973 21.2159 28.9933 21.0671 29.3848 20.7693C29.7763 20.4715 30.0405 19.9746 30.1778 19.2781C30.3091 18.6095 30.2493 18.1376 29.9984 17.8627C29.7475 17.5878 29.2446 17.4504 28.4909 17.4504H27.1313L26.3903 21.2158M29.2423 16.0306C30.3903 16.0306 31.2277 16.3281 31.7541 16.9232C32.2805 17.5183 32.4389 18.349 32.2289 19.4155C32.1425 19.8548 31.9963 20.2565 31.7905 20.6204C31.5846 20.9844 31.3153 21.3175 30.9828 21.6194C30.5866 21.9857 30.1464 22.2466 29.662 22.4021C29.1776 22.558 28.5608 22.6356 27.8108 22.6356H26.111L25.6404 25.0276H23.656L25.4265 16.0307H29.2424" fill="#161C2D"/>
</g>
</svg>
