<svg width="64" height="64" viewBox="0 0 64 64" fill="none" xmlns="http://www.w3.org/2000/svg">
<mask id="mask0_862_4490" style="mask-type:luminance" maskUnits="userSpaceOnUse" x="8" y="8" width="48" height="48">
<path d="M32 56C45.2548 56 56 45.2548 56 32C56 18.7452 45.2548 8 32 8C18.7452 8 8 18.7452 8 32C8 45.2548 18.7452 56 32 56Z" fill="white"/>
</mask>
<g mask="url(#mask0_862_4490)">
<path d="M6.82349 6.82324H57.1764V57.1762H6.82349V6.82324Z" fill="#E5E5E4"/>
</g>
<mask id="mask1_862_4490" style="mask-type:luminance" maskUnits="userSpaceOnUse" x="8" y="8" width="48" height="48">
<path d="M31.9999 55.5295C44.9948 55.5295 55.5293 44.995 55.5293 32.0001C55.5293 19.0052 44.9948 8.4707 31.9999 8.4707C19.0049 8.4707 8.47046 19.0052 8.47046 32.0001C8.47046 44.995 19.0049 55.5295 31.9999 55.5295Z" fill="white"/>
</mask>
<g mask="url(#mask1_862_4490)">
<path d="M7.29419 7.29395H56.706V56.7057H7.29419V7.29395Z" fill="white"/>
</g>
<mask id="mask2_862_4490" style="mask-type:luminance" maskUnits="userSpaceOnUse" x="10" y="10" width="44" height="44">
<path d="M31.9998 53.6471C43.9552 53.6471 53.6469 43.9554 53.6469 32.0001C53.6469 20.0447 43.9552 10.353 31.9998 10.353C20.0445 10.353 10.3528 20.0447 10.3528 32.0001C10.3528 43.9554 20.0445 53.6471 31.9998 53.6471Z" fill="white"/>
</mask>
<g mask="url(#mask2_862_4490)">
<path d="M9.17651 9.17627H54.8236V54.8233H9.17651V9.17627Z" fill="#4A8CFF"/>
</g>
<mask id="mask3_862_4490" style="mask-type:luminance" maskUnits="userSpaceOnUse" x="17" y="24" width="29" height="16">
<path d="M38.5882 29.1906L44.7059 24.72C45.24 24.2847 45.647 24.3859 45.647 25.1906V38.8235C45.647 39.7271 45.1388 39.6235 44.7059 39.2941L38.5882 34.8235V29.1906ZM17.8823 25.2235V35.3883C17.8879 36.4918 18.3315 37.5479 19.1156 38.3245C19.8996 39.101 20.96 39.5344 22.0635 39.5294H36.887C37.0876 39.5301 37.2802 39.4512 37.4226 39.31C37.5651 39.1689 37.6458 38.977 37.647 38.7765V28.6118C37.6414 27.5083 37.1978 26.4521 36.4138 25.6756C35.6297 24.899 34.5694 24.4656 33.4659 24.4706H18.6423C18.4418 24.47 18.2492 24.5489 18.1067 24.69C17.9643 24.8312 17.8836 25.023 17.8823 25.2235Z" fill="white"/>
</mask>
<g mask="url(#mask3_862_4490)">
<path d="M16.7058 23.2939H46.8235V40.7057H16.7058V23.2939Z" fill="white"/>
</g>
</svg>
